<svg width="134" height="28" viewBox="0 0 134 28" fill="none" xmlns="http://www.w3.org/2000/svg">
  <g clip-path="url(#clip0_569_29016)">
    <circle cx="14.5996" cy="14" r="12.32" stroke="white" stroke-width="3.36"/>
    <mask id="mask0_569_29016" style="mask-type:alpha" maskUnits="userSpaceOnUse" x="0" y="0" width="29" height="28">
      <circle cx="14.5996" cy="14" r="14" fill="black"/>
    </mask>
    <g mask="url(#mask0_569_29016)">
      <circle cx="9.86386" cy="8.23495" r="10.4671" stroke="white" stroke-width="3.36"/>
    </g>
  </g>
  <path d="M42.7855 24.2532V21.5876H45.0199C45.3596 21.5876 45.6471 21.5419 45.8823 21.4504C46.1175 21.372 46.3069 21.2348 46.4507 21.0388C46.5944 20.8428 46.712 20.5749 46.8035 20.2352L49.4495 9.2592H52.4287L49.4299 20.8624C49.2208 21.6987 48.9268 22.3651 48.5479 22.8616C48.182 23.3581 47.6855 23.7109 47.0583 23.92C46.4441 24.1421 45.6601 24.2532 44.7063 24.2532H42.7855ZM46.1567 19.7648V17.3148H48.4303V19.7648H46.1567ZM44.8631 19.7648L41.5703 9.2592H44.7259L47.8423 19.7648H44.8631ZM59.0656 20.3724C58.1248 20.3724 57.2885 20.2287 56.5568 19.9412C55.825 19.6407 55.2044 19.2356 54.6948 18.726C54.1982 18.2164 53.8193 17.6349 53.558 16.9816C53.2966 16.3152 53.166 15.6161 53.166 14.8844V14.4336C53.166 13.6888 53.2966 12.9832 53.558 12.3168C53.8324 11.6373 54.2244 11.0428 54.734 10.5332C55.2566 10.0236 55.8838 9.62507 56.6156 9.3376C57.3473 9.03707 58.164 8.8868 59.0656 8.8868C59.9933 8.8868 60.8165 9.03707 61.5352 9.3376C62.2669 9.62507 62.8876 10.0236 63.3972 10.5332C63.9068 11.0428 64.2988 11.6373 64.5732 12.3168C64.8476 12.9832 64.9848 13.6888 64.9848 14.4336V14.8844C64.9848 15.6161 64.8541 16.3152 64.5928 16.9816C64.3314 17.6349 63.946 18.2164 63.4364 18.726C62.9398 19.2356 62.3257 19.6407 61.594 19.9412C60.8622 20.2287 60.0194 20.3724 59.0656 20.3724ZM59.0656 17.7264C59.6797 17.7264 60.1893 17.5957 60.5944 17.3344C60.9994 17.0731 61.3065 16.7072 61.5156 16.2368C61.7377 15.7664 61.8488 15.2437 61.8488 14.6688C61.8488 14.0547 61.7377 13.5189 61.5156 13.0616C61.2934 12.5912 60.9733 12.2188 60.5552 11.9444C60.1501 11.67 59.6536 11.5328 59.0656 11.5328C58.4906 11.5328 57.9941 11.67 57.576 11.9444C57.1578 12.2188 56.8377 12.5912 56.6156 13.0616C56.4065 13.5189 56.302 14.0547 56.302 14.6688C56.302 15.2437 56.4065 15.7664 56.6156 16.2368C56.8246 16.7072 57.1382 17.0731 57.5564 17.3344C57.9745 17.5957 58.4776 17.7264 59.0656 17.7264ZM70.7994 20.3332C69.558 20.3332 68.6042 19.9347 67.9378 19.1376C67.2714 18.3275 66.9382 17.1123 66.9382 15.492V9.2592H70.0742V15.6488C70.0742 16.2237 70.2375 16.6811 70.5642 17.0208C70.8908 17.3605 71.3286 17.5304 71.8774 17.5304C72.4392 17.5304 72.8966 17.354 73.2494 17.0012C73.6022 16.6484 73.7786 16.1715 73.7786 15.5704V9.2592H76.9146V20H74.4254V15.4724H74.641C74.641 16.5569 74.4972 17.4651 74.2098 18.1968C73.9354 18.9155 73.5238 19.4512 72.975 19.804C72.4262 20.1568 71.7467 20.3332 70.9366 20.3332H70.7994ZM79.8062 20V9.2592H82.2954V13.8652H82.2366C82.2366 12.3495 82.5567 11.18 83.197 10.3568C83.8503 9.5336 84.7911 9.122 86.0194 9.122H86.431V11.8268H85.647C84.7846 11.8268 84.1182 12.062 83.6478 12.5324C83.1774 12.9897 82.9422 13.6561 82.9422 14.5316V20H79.8062ZM88.193 20V5.692H91.3486V20H88.193ZM86.919 8.0048V5.692H91.3486V8.0048H86.919ZM99.4714 20.3724C98.5306 20.3724 97.6944 20.2287 96.9626 19.9412C96.2309 19.6407 95.6102 19.2356 95.1006 18.726C94.6041 18.2164 94.2252 17.6349 93.9638 16.9816C93.7025 16.3152 93.5718 15.6161 93.5718 14.8844V14.4336C93.5718 13.6888 93.7025 12.9832 93.9638 12.3168C94.2382 11.6373 94.6302 11.0428 95.1398 10.5332C95.6625 10.0236 96.2897 9.62507 97.0214 9.3376C97.7532 9.03707 98.5698 8.8868 99.4714 8.8868C100.399 8.8868 101.222 9.03707 101.941 9.3376C102.673 9.62507 103.293 10.0236 103.803 10.5332C104.313 11.0428 104.705 11.6373 104.979 12.3168C105.253 12.9832 105.391 13.6888 105.391 14.4336V14.8844C105.391 15.6161 105.26 16.3152 104.999 16.9816C104.737 17.6349 104.352 18.2164 103.842 18.726C103.346 19.2356 102.732 19.6407 102 19.9412C101.268 20.2287 100.425 20.3724 99.4714 20.3724ZM99.4714 17.7264C100.086 17.7264 100.595 17.5957 101 17.3344C101.405 17.0731 101.712 16.7072 101.921 16.2368C102.144 15.7664 102.255 15.2437 102.255 14.6688C102.255 14.0547 102.144 13.5189 101.921 13.0616C101.699 12.5912 101.379 12.2188 100.961 11.9444C100.556 11.67 100.059 11.5328 99.4714 11.5328C98.8965 11.5328 98.4 11.67 97.9818 11.9444C97.5637 12.2188 97.2436 12.5912 97.0214 13.0616C96.8124 13.5189 96.7078 14.0547 96.7078 14.6688C96.7078 15.2437 96.8124 15.7664 97.0214 16.2368C97.2305 16.7072 97.5441 17.0731 97.9622 17.3344C98.3804 17.5957 98.8834 17.7264 99.4714 17.7264ZM111.813 24.2728C111.29 24.2728 110.754 24.2532 110.206 24.214C109.657 24.1748 109.154 24.1225 108.696 24.0572V21.4112C109.154 21.4765 109.657 21.5288 110.206 21.568C110.768 21.6203 111.277 21.6464 111.734 21.6464C112.584 21.6464 113.27 21.5484 113.792 21.3524C114.328 21.1564 114.72 20.8559 114.968 20.4508C115.217 20.0588 115.341 19.5492 115.341 18.922V16.7856L115.909 15.5312C115.883 16.4851 115.694 17.3017 115.341 17.9812C115.001 18.6607 114.524 19.1833 113.91 19.5492C113.296 19.902 112.564 20.0784 111.715 20.0784C110.983 20.0784 110.317 19.9477 109.716 19.6864C109.128 19.412 108.625 19.0331 108.206 18.5496C107.788 18.0661 107.468 17.5043 107.246 16.864C107.024 16.2107 106.913 15.5051 106.913 14.7472V14.2964C106.913 13.5385 107.03 12.8329 107.266 12.1796C107.501 11.5263 107.841 10.9579 108.285 10.4744C108.729 9.99093 109.258 9.61853 109.872 9.3572C110.487 9.0828 111.166 8.9456 111.911 8.9456C112.773 8.9456 113.518 9.13507 114.145 9.514C114.786 9.89293 115.289 10.4483 115.654 11.18C116.02 11.9117 116.216 12.7937 116.242 13.826L115.811 13.9436V9.2592H118.3V18.726C118.3 20.0457 118.065 21.1107 117.595 21.9208C117.124 22.7309 116.406 23.3255 115.439 23.7044C114.485 24.0833 113.276 24.2728 111.813 24.2728ZM112.695 17.4324C113.178 17.4324 113.616 17.3279 114.008 17.1188C114.4 16.8967 114.707 16.5831 114.929 16.178C115.164 15.7729 115.282 15.2829 115.282 14.708V14.1396C115.282 13.5777 115.158 13.1073 114.91 12.7284C114.674 12.3364 114.361 12.0424 113.969 11.8464C113.577 11.6373 113.159 11.5328 112.714 11.5328C112.192 11.5328 111.728 11.6569 111.323 11.9052C110.918 12.1535 110.604 12.4997 110.382 12.944C110.16 13.3883 110.049 13.9109 110.049 14.512C110.049 15.1261 110.16 15.6553 110.382 16.0996C110.617 16.5308 110.931 16.864 111.323 17.0992C111.728 17.3213 112.185 17.4324 112.695 17.4324ZM126.249 20.3724C125.308 20.3724 124.472 20.2287 123.74 19.9412C123.009 19.6407 122.388 19.2356 121.878 18.726C121.382 18.2164 121.003 17.6349 120.742 16.9816C120.48 16.3152 120.35 15.6161 120.35 14.8844V14.4336C120.35 13.6888 120.48 12.9832 120.742 12.3168C121.016 11.6373 121.408 11.0428 121.918 10.5332C122.44 10.0236 123.067 9.62507 123.799 9.3376C124.531 9.03707 125.348 8.8868 126.249 8.8868C127.177 8.8868 128 9.03707 128.719 9.3376C129.45 9.62507 130.071 10.0236 130.581 10.5332C131.09 11.0428 131.482 11.6373 131.757 12.3168C132.031 12.9832 132.168 13.6888 132.168 14.4336V14.8844C132.168 15.6161 132.038 16.3152 131.776 16.9816C131.515 17.6349 131.13 18.2164 130.62 18.726C130.123 19.2356 129.509 19.6407 128.778 19.9412C128.046 20.2287 127.203 20.3724 126.249 20.3724ZM126.249 17.7264C126.863 17.7264 127.373 17.5957 127.778 17.3344C128.183 17.0731 128.49 16.7072 128.699 16.2368C128.921 15.7664 129.032 15.2437 129.032 14.6688C129.032 14.0547 128.921 13.5189 128.699 13.0616C128.477 12.5912 128.157 12.2188 127.739 11.9444C127.334 11.67 126.837 11.5328 126.249 11.5328C125.674 11.5328 125.178 11.67 124.76 11.9444C124.341 12.2188 124.021 12.5912 123.799 13.0616C123.59 13.5189 123.486 14.0547 123.486 14.6688C123.486 15.2437 123.59 15.7664 123.799 16.2368C124.008 16.7072 124.322 17.0731 124.74 17.3344C125.158 17.5957 125.661 17.7264 126.249 17.7264ZM138.591 20.3724C137.65 20.3724 136.814 20.2287 136.082 19.9412C135.35 19.6407 134.729 19.2356 134.219 18.726C133.723 18.2164 133.344 17.6349 133.082 16.9816C132.82 16.3152 132.689 15.6161 132.689 14.8844V14.4336C132.689 13.6888 132.82 12.9832 133.082 12.3168C133.356 11.6373 133.748 11.0428 134.257 10.5332C134.779 10.0236 135.406 9.62507 136.138 9.3376C136.869 9.03707 137.686 8.8868 138.591 8.8868C139.519 8.8868 140.342 9.03707 141.061 9.3376C141.792 9.62507 142.413 10.0236 142.923 10.5332C143.433 11.0428 143.825 11.6373 144.099 12.3168C144.373 12.9832 144.511 13.6888 144.511 14.4336V14.8844C144.511 15.6161 144.38 16.3152 144.118 16.9816C143.857 17.6349 143.472 18.2164 142.962 18.726C142.466 19.2356 141.852 19.6407 141.12 19.9412C140.388 20.2287 139.545 20.3724 138.591 20.3724ZM138.591 17.7264C139.205 17.7264 139.714 17.5957 140.119 17.3344C140.524 17.0731 140.831 16.7072 141.04 16.2368C141.262 15.7664 141.373 15.2437 141.373 14.6688C141.373 14.0547 141.262 13.5189 141.04 13.0616C140.818 12.5912 140.498 12.2188 140.08 11.9444C139.675 11.67 139.178 11.5328 138.591 11.5328C138.016 11.5328 137.52 11.67 137.102 11.9444C136.683 12.2188 136.363 12.5912 136.141 13.0616C135.932 13.5189 135.827 14.0547 135.827 14.6688C135.827 15.2437 135.932 15.7664 136.141 16.2368C136.35 16.7072 136.664 17.0731 137.082 17.3344C137.5 17.5957 138.003 17.7264 138.591 17.7264ZM151.004 20V16.0028H148.515V20H145.36V9.2592H148.515V13.8652H148.574C148.574 12.3495 148.894 11.18 149.534 10.3568C150.187 9.5336 151.128 9.122 152.356 9.122H152.767V11.8268H151.983C151.121 11.8268 150.454 12.062 149.984 12.5324C149.514 12.9897 149.278 13.6561 149.278 14.5316V20H151.004ZM157.891 19.702C157.292 19.9608 156.651 20.1091 155.969 20.1472C155.287 20.1853 154.579 20.204 153.844 20.2032C153.127 20.2032 152.377 20.1472 151.594 20.0352C150.811 19.9232 150.02 19.756 149.221 19.5336C148.422 19.3112 147.685 19.0291 147.009 18.6872C146.332 18.3333 145.74 17.9169 145.234 17.438C144.728 16.9592 144.336 16.419 144.059 15.8176C143.793 15.204 143.659 14.5357 143.659 13.8124C143.659 13.089 143.793 12.4207 144.059 11.8072C144.325 11.1937 144.721 10.6535 145.248 10.1864C145.788 9.7272 146.42 9.3508 147.145 9.0572C147.892 8.74556 148.708 8.49895 149.594 8.3176C150.48 8.12421 151.416 8.02752 152.402 8.0276C153.449 8.02752 154.404 8.11408 155.269 8.2872C156.134 8.44809 156.919 8.67873 157.624 8.9792C158.329 9.26767 158.926 9.62201 159.416 10.0424C159.905 10.4628 160.283 10.9472 160.55 11.4956C160.816 12.0328 160.949 12.6024 160.949 13.2044C160.949 14.2089 160.713 15.1125 160.242 15.9152C159.794 16.6976 159.144 17.3384 158.292 17.8376C157.462 18.3267 156.501 18.7233 155.409 19.0272C154.318 19.3191 153.194 19.5151 152.036 19.6152C152.697 19.702 153.332 19.7455 153.941 19.7456C154.549 19.7756 155.123 19.7745 155.661 19.7424C156.219 19.7102 156.745 19.6438 157.238 19.5432L157.891 19.702ZM166.107 24.2728C165.584 24.2728 165.048 24.2532 164.5 24.214C163.951 24.1748 163.448 24.1225 162.989 24.0572V21.4112C163.448 21.4765 163.951 21.5288 164.5 21.568C165.062 21.6203 165.571 21.6464 166.027 21.6464C166.877 21.6464 167.563 21.5484 168.085 21.3524C168.621 21.1564 169.013 20.8559 169.262 20.4508C169.511 20.0588 169.636 19.5492 169.636 18.922V16.7856L170.204 15.5312C170.178 16.4851 169.989 17.3017 169.636 17.9812C169.296 18.6607 168.819 19.1833 168.205 19.5492C167.591 19.902 166.859 20.0784 166.007 20.0784C165.276 20.0784 164.61 19.9477 164.01 19.6864C163.421 19.412 162.918 19.0331 162.5 18.5496C162.082 18.0661 161.762 17.5043 161.54 16.864C161.319 16.2107 161.209 15.5051 161.209 14.7472V14.2964C161.209 13.5385 161.326 12.8329 161.562 12.1796C161.796 11.5263 162.136 10.9579 162.579 10.4744C163.023 9.99093 163.552 9.61853 164.167 9.3572C164.782 9.0828 165.461 8.9456 166.206 8.9456C167.068 8.9456 167.813 9.13507 168.439 9.514C169.08 9.89293 169.583 10.4483 169.948 11.18C170.314 11.9117 170.51 12.7937 170.536 13.826L170.104 13.9436V9.2592H172.593V18.726C172.593 20.0457 172.358 21.1107 171.888 21.9208C171.418 22.7309 170.7 23.3255 169.733 23.7044C168.779 24.0833 167.57 24.2728 166.107 24.2728ZM166.989 17.4324C167.472 17.4324 167.91 17.3279 168.302 17.1188C168.694 16.8967 169.001 16.5831 169.223 16.178C169.458 15.7729 169.576 15.2829 169.576 14.708V14.1396C169.576 13.5777 169.452 13.1073 169.204 12.7284C168.968 12.3364 168.655 12.0424 168.263 11.8464C167.872 11.6373 167.454 11.5328 167.009 11.5328C166.487 11.5328 166.022 11.6569 165.617 11.9052C165.212 12.1535 164.898 12.4997 164.676 12.944C164.454 13.3883 164.343 13.9109 164.343 14.512C164.343 15.1261 164.454 15.6553 164.676 16.0996C164.911 16.5308 165.225 16.864 165.617 17.0992C166.022 17.3213 166.479 17.4324 166.989 17.4324ZM176.018 19.8728L175.512 18.8828C174.688 19.5613 173.848 19.9006 172.993 19.9006C172.42 19.9006 171.92 19.7655 171.493 19.4952C171.066 19.2364 170.723 18.8932 170.465 18.4656C170.207 18.038 170.078 17.5653 170.078 17.0476C170.078 16.5867 170.186 16.1775 170.401 15.82C170.616 15.4529 170.941 15.1524 171.375 14.9188C171.822 14.6853 172.358 14.5686 172.983 14.5688C173.954 14.5686 174.676 14.7268 175.148 15.0432C175.632 15.3476 175.874 15.7744 175.874 16.3236V16.692C174.418 16.692 173.32 16.4137 172.58 15.8572C171.848 15.3008 171.482 14.3876 171.482 13.1176C171.482 11.8326 171.846 10.8977 172.574 10.3128C173.302 9.72797 174.359 9.4356 175.743 9.4356C177.055 9.4356 178.113 9.74241 178.917 10.3568C179.721 10.9712 180.123 11.8652 180.123 13.0388V16.8388C180.123 17.8952 179.86 18.6704 179.335 19.1644C178.809 19.6703 178.063 19.9228 177.096 19.9228C176.645 19.9228 176.219 19.9053 175.818 19.8704L176.018 19.8728ZM174.32 16.542C174.32 17.1591 174.46 17.6902 174.74 18.1356C175.043 18.5702 175.451 18.7876 175.965 18.7876C176.411 18.7876 176.782 18.6555 177.078 18.3912C177.386 18.1268 177.54 17.7621 177.54 17.2972C177.54 16.7552 177.412 16.3424 177.156 16.0588C176.899 15.7752 176.483 15.6336 175.907 15.634C175.351 15.6336 174.899 15.7952 174.552 16.1188C174.218 16.4424 174.32 16.9177 174.32 17.5444V16.542Z" fill="white"></path>
</g>
</g>
</g>
</svg>